<svg xmlns="http://www.w3.org/2000/svg" viewBox="0 0 900 600" height="600" width="900"><g xmlns="http://www.w3.org/2000/svg" transform="matrix(-1 0 0 -1 900 600)"><rect x="0" y="0" width="900" height="600" fill="#223047"></rect><path d="M0 545L60 493L120 518L180 500L240 518L300 520L360 528L420 508L480 480L540 545L600 489L660 499L720 538L780 496L840 506L900 488L900 0L840 0L780 0L720 0L660 0L600 0L540 0L480 0L420 0L360 0L300 0L240 0L180 0L120 0L60 0L0 0Z" fill="#223047"></path><path d="M0 403L60 409L120 404L180 417L240 453L300 447L360 456L420 411L480 404L540 406L600 416L660 418L720 398L780 437L840 419L900 406L900 0L840 0L780 0L720 0L660 0L600 0L540 0L480 0L420 0L360 0L300 0L240 0L180 0L120 0L60 0L0 0Z" fill="#24344c"></path><path d="M0 373L60 367L120 312L180 352L240 346L300 317L360 370L420 324L480 344L540 365L600 343L660 342L720 320L780 333L840 368L900 345L900 0L840 0L780 0L720 0L660 0L600 0L540 0L480 0L420 0L360 0L300 0L240 0L180 0L120 0L60 0L0 0Z" fill="#253751"></path><path d="M0 248L60 285L120 234L180 251L240 232L300 279L360 225L420 240L480 243L540 244L600 252L660 276L720 266L780 279L840 274L900 268L900 0L840 0L780 0L720 0L660 0L600 0L540 0L480 0L420 0L360 0L300 0L240 0L180 0L120 0L60 0L0 0Z" fill="#273b57"></path><path d="M0 195L60 194L120 161L180 154L240 174L300 163L360 196L420 187L480 175L540 202L600 151L660 201L720 171L780 144L840 204L900 159L900 0L840 0L780 0L720 0L660 0L600 0L540 0L480 0L420 0L360 0L300 0L240 0L180 0L120 0L60 0L0 0Z" fill="#283e5c"></path><path d="M0 59L60 108L120 92L180 53L240 90L300 109L360 65L420 66L480 56L540 52L600 94L660 80L720 57L780 67L840 95L900 111L900 0L840 0L780 0L720 0L660 0L600 0L540 0L480 0L420 0L360 0L300 0L240 0L180 0L120 0L60 0L0 0Z" fill="#2a4262"></path></g></svg>