<svg id="visual" viewBox="0 0 900 600" width="900" height="600" xmlns="http://www.w3.org/2000/svg" xmlns:xlink="http://www.w3.org/1999/xlink" version="1.1"><path d="M0 73L90 49L180 49L270 61L360 37L450 49L540 79L630 37L720 67L810 61L900 79L900 0L810 0L720 0L630 0L540 0L450 0L360 0L270 0L180 0L90 0L0 0Z" fill="#2b4362"></path><path d="M0 145L90 91L180 103L270 109L360 79L450 85L540 139L630 85L720 145L810 97L900 121L900 77L810 59L720 65L630 35L540 77L450 47L360 35L270 59L180 47L90 47L0 71Z" fill="#293f5c"></path><path d="M0 229L90 277L180 289L270 283L360 211L450 259L540 301L630 199L720 283L810 217L900 241L900 119L810 95L720 143L630 83L540 137L450 83L360 77L270 107L180 101L90 89L0 143Z" fill="#283b57"></path><path d="M0 433L90 403L180 409L270 397L360 427L450 415L540 397L630 403L720 451L810 433L900 451L900 239L810 215L720 281L630 197L540 299L450 257L360 209L270 281L180 287L90 275L0 227Z" fill="#263751"></path><path d="M0 481L90 463L180 487L270 481L360 535L450 529L540 475L630 487L720 547L810 487L900 529L900 449L810 431L720 449L630 401L540 395L450 413L360 425L270 395L180 407L90 401L0 431Z" fill="#24344c"></path><path d="M0 601L90 601L180 601L270 601L360 601L450 601L540 601L630 601L720 601L810 601L900 601L900 527L810 485L720 545L630 485L540 473L450 527L360 533L270 479L180 485L90 461L0 479Z" fill="#223047"></path></svg>